:SAMPLES-PER-SECOND 30
:FULLY-SPECIFIED
:DEGREES
321
root  33.1364 37.2511 17.9842 7.06087 66.9409 4.78148
RightUpLeg  -24.3927 -12.3364 -5.64691
RightLeg  73.0869 -1.52664 -6.68476
RightFoot  4.70075 -0.54884 4.14235
RightToes  0.00048216 0.542163 -0.142577
Spine  37.3105 -0.306399 0.717053
Spine1  13.0608 2.81444 -9.19552
HEad  -8.14085 1.32013 -6.54909
LeftShoulder1  9.89145 -16.7969 -42.3109
LeftArm  -13.0115 -10.5187 -21.6066
LeftForeArm  15.7214 -13.8554 -5.19407
LeftHand  -0.25398 0.0180481 5.50724
RightShoulder  5.59654 12.2088 29.6386
RightArm  -1.55367 35.2496 40.8693
RightForeArm  3.17719 14.5262 6.96428
RightHand  -0.907642 1.66811 -15.0672
LeftUpLeg  -36.6005 26.1625 -16.7903
LeftLeg  20.7932 2.94728 1.56804
LeftFoot  7.38055 -2.34242 13.8618
LeftToes  1.06248e-005 4.65855e-005 -8.185e-006
322
root  33.7404 37.6152 18.4377 6.72445 68.7739 2.69678
RightUpLeg  -31.6001 -12.5038 -3.90845
RightLeg  68.9602 -2.26545 -7.26446
RightFoot  2.7723 -0.515624 4.30924
RightToes  0.00048216 0.542163 -0.142577
Spine  40.608 -1.02456 2.0801
Spine1  13.8301 2.45112 -8.60783
HEad  -11.2798 -0.503838 -6.22671
LeftShoulder1  9.61298 -17.1934 -40.1733
LeftArm  -15.9714 -17.7289 -22.9664
LeftForeArm  15.2605 -12.6597 -5.07609
LeftHand  -0.25398 0.0180481 5.50724
RightShoulder  5.35122 12.4195 27.572
RightArm  -6.44522 40.5779 38.8786
RightForeArm  7.27857 9.89692 7.76231
RightHand  -0.92379 1.85929 -14.9419
LeftUpLeg  -36.372 25.5153 -16.0215
LeftLeg  19.7576 1.82827 1.05971
LeftFoot  7.15044 -2.22255 13.318
LeftToes  1.06248e-005 4.65855e-005 -8.185e-006
323
root  34.3145 37.9088 18.9396 6.39411 70.9483 0.73148
RightUpLeg  -36.5389 -12.7308 -2.5824
RightLeg  60.1788 -3.66374 -7.37903
RightFoot  2.68889 -0.42467 3.60098
RightToes  0.00048216 0.542163 -0.142577
Spine  43.9103 -1.97238 3.49895
Spine1  14.1861 2.00737 -8.32047
HEad  -14.2548 -2.18193 -5.46563
LeftShoulder1  9.42637 -17.9603 -37.7477
LeftArm  -18.902 -24.0733 -23.6324
LeftForeArm  15.9848 -11.8202 -4.70403
LeftHand  -0.25398 0.0180481 5.50724
RightShoulder  5.11165 12.5122 25.82
RightArm  -9.19466 45.3657 36.242
RightForeArm  9.06346 6.41942 7.78987
RightHand  -0.837713 1.43907 -14.3591
LeftUpLeg  -36.1425 24.3721 -15.1448
LeftLeg  18.9296 0.771404 0.625001
LeftFoot  6.86164 -2.08533 12.7004
LeftToes  1.06248e-005 4.65855e-005 -8.185e-006
324
root  34.8459 38.1066 19.5386 8.13608 72.8937 0.660069
RightUpLeg  -39.5919 -12.3776 -2.35323
RightLeg  47.4982 -4.98325 -6.17435
RightFoot  3.15573 -0.494892 4.05191
RightToes  0.00048216 0.542163 -0.142577
Spine  47.2885 -2.46002 3.74756
Spine1  13.839 1.53243 -7.65738
HEad  -17.3441 -3.68327 -4.71528
LeftShoulder1  9.36584 -18.8368 -35.7937
LeftArm  -21.523 -29.7815 -23.0066
LeftForeArm  17.0467 -11.3625 -4.31813
LeftHand  -0.25398 0.0180481 5.50724
RightShoulder  4.85709 12.6053 23.9706
RightArm  -10.9986 49.5146 33.1047
RightForeArm  8.77848 4.13627 7.69095
RightHand  -0.732775 0.891703 -13.6435
LeftUpLeg  -36.6989 23.394 -14.9943
LeftLeg  18.5246 -0.392475 0.170157
LeftFoot  6.92293 -2.02871 12.3059
LeftToes  1.06248e-005 4.65855e-005 -8.185e-006
325
root  35.3981 38.156 20.2645 12.893 75.1184 3.25722
RightUpLeg  -41.4115 -12.09 -3.22024
RightLeg  33.4239 -4.58454 -3.56007
RightFoot  3.05772 -0.69776 5.69819
RightToes  0.00048216 0.542163 -0.142577
Spine  49.9935 -2.88748 3.29837
Spine1  13.8286 1.04157 -7.09477
HEad  -20.7496 -5.41454 -3.84895
LeftShoulder1  9.23683 -19.7831 -33.5676
LeftArm  -24.752 -35.4064 -21.829
LeftForeArm  18.2372 -11.0542 -3.75635
LeftHand  -0.25398 0.0180481 5.50724
RightShoulder  4.60243 12.7924 21.9492
RightArm  -14.1178 53.02 29.3208
RightForeArm  7.40701 2.7812 7.51951
RightHand  -0.76449 1.13549 -13.7049
LeftUpLeg  -38.2976 22.0577 -15.4937
LeftLeg  19.3197 -1.43679 -0.25783
LeftFoot  6.45917 -1.94695 12.131
LeftToes  1.06248e-005 4.65855e-005 -8.185e-006
326
root  36.0115 38.097 21.1123 20.1709 78.4163 8.44564
RightUpLeg  -42.2148 -12.7777 -4.43615
RightLeg  21.5648 -2.25776 -1.14825
RightFoot  2.06488 -0.803364 6.94154
RightToes  0.00048216 0.542163 -0.142577
Spine  52.2493 -4.40106 3.97053
Spine1  13.9427 0.511155 -8.22547
HEad  -23.8444 -7.50367 -1.78017
LeftShoulder1  8.59021 -21.1609 -28.6774
LeftArm  -28.7054 -40.339 -21.5365
LeftForeArm  19.4644 -10.7105 -2.78335
LeftHand  -0.25398 0.0180481 5.50724
RightShoulder  4.65169 13.0793 21.738
RightArm  -18.7964 55.3617 23.4613
RightForeArm  5.22548 2.39466 7.31295
RightHand  -0.903865 2.00478 -14.3545
LeftUpLeg  -40.1127 19.941 -15.7935
LeftLeg  21.257 -2.73821 -0.836913
LeftFoot  5.32002 -1.76993 11.8181
LeftToes  1.06248e-005 4.65855e-005 -8.185e-006
327
root  36.6027 37.9976 22.0439 34.7203 82.009 20.7363
RightUpLeg  -43.0795 -13.6291 -5.87751
RightLeg  14.6077 -0.75307 0.0980548
RightFoot  2.52766 -0.895539 7.47816
RightToes  0.00048216 0.542163 -0.142577
Spine  53.8237 -5.2954 4.83346
Spine1  15.1392 -0.143306 -7.1124
HEad  -27.1935 -9.81104 -0.299354
LeftShoulder1  8.15738 -22.9381 -24.5061
LeftArm  -33.0052 -45.8774 -19.9814
LeftForeArm  19.8101 -9.70223 -1.75954
LeftHand  -0.25398 0.0180481 5.50724
RightShoulder  4.30624 13.067 19.5445
RightArm  -24.7991 56.6087 17.2731
RightForeArm  2.84106 2.30855 6.75009
RightHand  -1.00878 2.68798 -14.7005
LeftUpLeg  -42.1969 17.3743 -15.9449
LeftLeg  23.318 -4.21978 -1.65326
LeftFoot  4.50875 -1.58144 11.127
LeftToes  1.06248e-005 4.65855e-005 -8.185e-006
328
root  37.1496 37.8465 23.0353 65.1412 84.7119 48.7384
RightUpLeg  -45.0468 -15.1055 -6.56918
RightLeg  13.5508 -0.916634 0.800782
RightFoot  6.14765 -1.00731 6.85711
RightToes  0.00048216 0.542163 -0.142577
Spine  56.4471 -6.49772 5.95131
Spine1  14.1141 -1.24709 -6.14967
HEad  -29.6444 -11.0432 1.43338
LeftShoulder1  7.72655 -24.1098 -21.4656
LeftArm  -36.6307 -50.8153 -15.9104
LeftForeArm  18.9979 -8.22951 -1.32969
LeftHand  -0.25398 0.0180481 5.50724
RightShoulder  4.23661 13.7944 17.9213
RightArm  -30.0386 56.4442 10.6774
RightForeArm  0.206767 2.00596 6.40714
RightHand  -1.00235 2.84463 -14.3429
LeftUpLeg  -44.7465 15.0292 -16.2242
LeftLeg  25.44 -5.33683 -2.42431
LeftFoot  3.93881 -1.40026 10.2282
LeftToes  1.06248e-005 4.65855e-005 -8.185e-006
329
root  37.6976 37.5866 24.0198 103.363 85.3101 84.0916
RightUpLeg  -49.7677 -18.7539 -3.2367
RightLeg  16.9062 1.39101 1.11988
RightFoot  10.6707 -0.777981 4.40225
RightToes  0.00048216 0.542163 -0.142577
Spine  58.7963 -7.40862 7.16123
Spine1  12.7372 -1.68478 -5.81953
HEad  -32.0346 -12.1091 3.34847
LeftShoulder1  7.52278 -25.0119 -19.7429
LeftArm  -41.599 -56.0496 -8.99133
LeftForeArm  18.2831 -6.54804 -1.19526
LeftHand  -0.25398 0.0180481 5.50724
RightShoulder  4.12789 14.5813 16.1029
RightArm  -35.7593 55.8444 3.49151
RightForeArm  -2.20632 1.18071 5.91052
RightHand  -0.903131 2.80541 -13.0139
LeftUpLeg  -48.5504 14.1063 -16.9121
LeftLeg  28.3229 -5.12576 -2.639
LeftFoot  2.6389 -1.17803 9.45166
LeftToes  1.06248e-005 4.65855e-005 -8.185e-006
330
root  38.2615 37.2858 24.9189 122.259 85.3109 99.3475
RightUpLeg  -56.5384 -21.1008 2.2145
RightLeg  21.6116 4.00208 1.43391
RightFoot  12.2988 -0.0151064 0.426122
RightToes  0.00048216 0.542163 -0.142577
Spine  60.9269 -7.55223 7.99083
Spine1  11.0513 -1.13862 -6.12262
HEad  -34.2092 -12.8591 4.92861
LeftShoulder1  7.58011 -25.6159 -19.3573
LeftArm  -48.9515 -60.6385 0.89112
LeftForeArm  17.8687 -5.57953 -1.26883
LeftHand  -0.25398 0.0180481 5.50724
RightShoulder  3.98814 15.4097 14.1953
RightArm  -42.1961 55.0115 -4.21416
RightForeArm  -3.43168 -0.0618339 5.10269
RightHand  -0.726596 2.81623 -10.5161
LeftUpLeg  -53.943 15.2908 -18.383
LeftLeg  31.5854 -3.43357 -1.91574
LeftFoot  0.86194 -0.950114 8.82011
LeftToes  1.06248e-005 4.65855e-005 -8.185e-006
331
root  38.8384 37.0292 25.7341 131.638 85.9329 104.771
RightUpLeg  -62.6788 -20.5058 6.2343
RightLeg  25.7873 3.81747 1.7775
RightFoot  10.5015 0.715296 -3.34117
RightToes  0.00048216 0.542163 -0.142577
Spine  63.1117 -7.05884 8.23057
Spine1  9.17928 -0.208615 -6.33504
HEad  -36.1681 -12.8801 5.72483
LeftShoulder1  7.63246 -26.1931 -18.9937
LeftArm  -57.9784 -63.2755 12.3572
LeftForeArm  16.6351 -5.65069 -1.39706
LeftHand  -0.25398 0.0180481 5.50724
RightShoulder  3.90396 16.4858 12.4723
RightArm  -48.8023 53.8904 -12.4174
RightForeArm  -4.26645 -1.45203 4.18895
RightHand  -0.524479 2.95419 -7.57335
LeftUpLeg  -60.0643 17.6534 -20.7845
LeftLeg  34.5101 -1.06231 -0.421622
LeftFoot  -0.625414 -0.769595 8.23214
LeftToes  1.06248e-005 4.65855e-005 -8.185e-006
332
root  39.4374 36.8222 26.4956 147.586 86.2039 117.156
RightUpLeg  -67.5093 -19.9447 9.81708
RightLeg  28.9178 3.30652 1.74107
RightFoot  8.0294 0.990601 -5.45585
RightToes  0.00048216 0.542163 -0.142577
Spine  65.478 -6.78401 8.30411
Spine1  7.28105 0.334507 -6.20312
HEad  -37.7042 -12.5019 5.92312
LeftShoulder1  7.3709 -26.9851 -17.3409
LeftArm  -66.2816 -63.5314 22.5855
LeftForeArm  14.1889 -6.40346 -1.32036
LeftHand  -0.25398 0.0180481 5.50724
RightShoulder  3.88801 17.7313 11.1076
RightArm  -54.8063 52.5357 -20.3421
RightForeArm  -6.90386 -2.79913 3.43515
RightHand  -0.404325 3.39543 -5.6469
LeftUpLeg  -65.3682 19.3933 -23.5382
LeftLeg  36.5457 1.161 1.29091
LeftFoot  -1.88936 -0.638375 7.8497
LeftToes  1.06248e-005 4.65855e-005 -8.185e-006
